<?xml version="1.0" standalone="no"?>
<svg viewBox="0 0 200 200" xmlns="http://www.w3.org/2000/svg">
  <path fill="#F04722" d="M28.5,-40.5C41.4,-36,59.6,-35.7,65.4,-28.3C71.2,-20.9,64.7,-6.2,56.8,4C48.8,14.2,39.3,20,33.6,32.3C27.9,44.7,26,63.5,17.2,72.4C8.3,81.4,-7.5,80.4,-18.4,72.6C-29.4,64.9,-35.4,50.4,-46.3,39.3C-57.2,28.2,-72.9,20.5,-75.3,10.2C-77.7,0,-66.8,-12.8,-56.7,-22C-46.5,-31.3,-37,-37.1,-27.7,-43.3C-18.4,-49.6,-9.2,-56.2,-0.7,-55.1C7.8,-54,15.5,-45.1,28.5,-40.5Z" transform="translate(100 100)" />
</svg>
