<?xml version="1.0" standalone="no"?>
<svg viewBox="0 0 200 200" xmlns="http://www.w3.org/2000/svg">
  <path fill="#F04722" d="M23.9,-30.7C33.8,-30.8,46.7,-29,55.1,-21.8C63.5,-14.7,67.4,-2.2,64.2,8.1C61,18.5,50.7,26.7,40.4,30.6C30.1,34.4,20,33.9,9.7,40.2C-0.6,46.4,-10.9,59.5,-20.4,60.7C-29.9,62,-38.6,51.5,-47.3,41.1C-55.9,30.8,-64.6,20.7,-65.9,9.7C-67.1,-1.3,-60.9,-13.2,-56.6,-27.2C-52.3,-41.2,-49.8,-57.4,-40.6,-57.7C-31.5,-58,-15.8,-42.3,-4.4,-35.5C7,-28.7,14,-30.6,23.9,-30.7Z" transform="translate(100 100)" />
</svg>
